<svg id="visual" viewBox="0 0 460 800" width="460" height="800" xmlns="http://www.w3.org/2000/svg" xmlns:xlink="http://www.w3.org/1999/xlink" version="1.1"><rect x="0" y="0" width="460" height="800" fill="#001220"></rect><defs><linearGradient id="grad1_0" x1="0%" y1="0%" x2="100%" y2="100%"><stop offset="30%" stop-color="#fbae3c" stop-opacity="1"></stop><stop offset="70%" stop-color="#fbae3c" stop-opacity="1"></stop></linearGradient></defs><defs><linearGradient id="grad1_1" x1="0%" y1="0%" x2="100%" y2="100%"><stop offset="30%" stop-color="#fbae3c" stop-opacity="1"></stop><stop offset="70%" stop-color="#f48350" stop-opacity="1"></stop></linearGradient></defs><defs><linearGradient id="grad1_2" x1="0%" y1="0%" x2="100%" y2="100%"><stop offset="30%" stop-color="#d96162" stop-opacity="1"></stop><stop offset="70%" stop-color="#f48350" stop-opacity="1"></stop></linearGradient></defs><defs><linearGradient id="grad1_3" x1="0%" y1="0%" x2="100%" y2="100%"><stop offset="30%" stop-color="#d96162" stop-opacity="1"></stop><stop offset="70%" stop-color="#af4b6d" stop-opacity="1"></stop></linearGradient></defs><defs><linearGradient id="grad1_4" x1="0%" y1="0%" x2="100%" y2="100%"><stop offset="30%" stop-color="#7c3e6b" stop-opacity="1"></stop><stop offset="70%" stop-color="#af4b6d" stop-opacity="1"></stop></linearGradient></defs><defs><linearGradient id="grad1_5" x1="0%" y1="0%" x2="100%" y2="100%"><stop offset="30%" stop-color="#7c3e6b" stop-opacity="1"></stop><stop offset="70%" stop-color="#49335c" stop-opacity="1"></stop></linearGradient></defs><defs><linearGradient id="grad1_6" x1="0%" y1="0%" x2="100%" y2="100%"><stop offset="30%" stop-color="#1d2540" stop-opacity="1"></stop><stop offset="70%" stop-color="#49335c" stop-opacity="1"></stop></linearGradient></defs><defs><linearGradient id="grad1_7" x1="0%" y1="0%" x2="100%" y2="100%"><stop offset="30%" stop-color="#1d2540" stop-opacity="1"></stop><stop offset="70%" stop-color="#001220" stop-opacity="1"></stop></linearGradient></defs><defs><linearGradient id="grad2_0" x1="0%" y1="0%" x2="100%" y2="100%"><stop offset="30%" stop-color="#fbae3c" stop-opacity="1"></stop><stop offset="70%" stop-color="#fbae3c" stop-opacity="1"></stop></linearGradient></defs><defs><linearGradient id="grad2_1" x1="0%" y1="0%" x2="100%" y2="100%"><stop offset="30%" stop-color="#f48350" stop-opacity="1"></stop><stop offset="70%" stop-color="#fbae3c" stop-opacity="1"></stop></linearGradient></defs><defs><linearGradient id="grad2_2" x1="0%" y1="0%" x2="100%" y2="100%"><stop offset="30%" stop-color="#f48350" stop-opacity="1"></stop><stop offset="70%" stop-color="#d96162" stop-opacity="1"></stop></linearGradient></defs><defs><linearGradient id="grad2_3" x1="0%" y1="0%" x2="100%" y2="100%"><stop offset="30%" stop-color="#af4b6d" stop-opacity="1"></stop><stop offset="70%" stop-color="#d96162" stop-opacity="1"></stop></linearGradient></defs><defs><linearGradient id="grad2_4" x1="0%" y1="0%" x2="100%" y2="100%"><stop offset="30%" stop-color="#af4b6d" stop-opacity="1"></stop><stop offset="70%" stop-color="#7c3e6b" stop-opacity="1"></stop></linearGradient></defs><defs><linearGradient id="grad2_5" x1="0%" y1="0%" x2="100%" y2="100%"><stop offset="30%" stop-color="#49335c" stop-opacity="1"></stop><stop offset="70%" stop-color="#7c3e6b" stop-opacity="1"></stop></linearGradient></defs><defs><linearGradient id="grad2_6" x1="0%" y1="0%" x2="100%" y2="100%"><stop offset="30%" stop-color="#49335c" stop-opacity="1"></stop><stop offset="70%" stop-color="#1d2540" stop-opacity="1"></stop></linearGradient></defs><defs><linearGradient id="grad2_7" x1="0%" y1="0%" x2="100%" y2="100%"><stop offset="30%" stop-color="#001220" stop-opacity="1"></stop><stop offset="70%" stop-color="#1d2540" stop-opacity="1"></stop></linearGradient></defs><g transform="translate(460, 0)"><path d="M0 391C-67 379.1 -134 367.1 -194 336C-254 304.9 -307 254.7 -338.6 195.5C-370.3 136.3 -380.6 68.2 -391 0L0 0Z" fill="#0c1c30"></path><path d="M0 342.1C-58.6 331.7 -117.3 321.2 -169.7 294C-222.2 266.8 -268.6 222.9 -296.3 171.1C-324 119.3 -333.1 59.6 -342.1 0L0 0Z" fill="#312c4f"></path><path d="M0 293.3C-50.3 284.3 -100.5 275.3 -145.5 252C-190.5 228.7 -230.2 191 -254 146.6C-277.7 102.2 -285.5 51.1 -293.2 0L0 0Z" fill="#623965"></path><path d="M0 244.4C-41.9 236.9 -83.8 229.4 -121.2 210C-158.7 190.6 -191.8 159.2 -211.6 122.2C-231.4 85.2 -237.9 42.6 -244.4 0L0 0Z" fill="#96446e"></path><path d="M0 195.5C-33.5 189.5 -67 183.6 -97 168C-127 152.5 -153.5 127.3 -169.3 97.8C-185.1 68.2 -190.3 34.1 -195.5 0L0 0Z" fill="#c55469"></path><path d="M0 146.6C-25.1 142.1 -50.3 137.7 -72.7 126C-95.2 114.3 -115.1 95.5 -127 73.3C-138.9 51.1 -142.7 25.6 -146.6 0L0 0Z" fill="#e9705a"></path><path d="M0 97.8C-16.8 94.8 -33.5 91.8 -48.5 84C-63.5 76.2 -76.7 63.7 -84.7 48.9C-92.6 34.1 -95.2 17 -97.7 0L0 0Z" fill="#fa9845"></path><path d="M0 48.9C-8.4 47.4 -16.8 45.9 -24.2 42C-31.7 38.1 -38.4 31.8 -42.3 24.4C-46.3 17 -47.6 8.5 -48.9 0L0 0Z" fill="#fbae3c"></path></g><g transform="translate(0, 800)"><path d="M0 -391C69.1 -381.2 138.2 -371.3 195.5 -338.6C252.8 -305.9 298.5 -250.3 329.1 -190C359.7 -129.7 375.4 -64.9 391 0L0 0Z" fill="#0c1c30"></path><path d="M0 -342.1C60.4 -333.5 120.9 -324.9 171.1 -296.3C221.2 -267.7 261.2 -219 288 -166.3C314.8 -113.5 328.4 -56.8 342.1 0L0 0Z" fill="#312c4f"></path><path d="M0 -293.2C51.8 -285.9 103.6 -278.5 146.6 -254C189.6 -229.4 223.8 -187.7 246.8 -142.5C269.8 -97.3 281.5 -48.7 293.3 0L0 0Z" fill="#623965"></path><path d="M0 -244.4C43.2 -238.2 86.3 -232.1 122.2 -211.6C158 -191.2 186.5 -156.4 205.7 -118.8C224.8 -81.1 234.6 -40.5 244.4 0L0 0Z" fill="#96446e"></path><path d="M0 -195.5C34.5 -190.6 69.1 -185.7 97.7 -169.3C126.4 -152.9 149.2 -125.1 164.5 -95C179.9 -64.9 187.7 -32.4 195.5 0L0 0Z" fill="#c55469"></path><path d="M0 -146.6C25.9 -142.9 51.8 -139.3 73.3 -127C94.8 -114.7 111.9 -93.8 123.4 -71.3C134.9 -48.7 140.8 -24.3 146.6 0L0 0Z" fill="#e9705a"></path><path d="M0 -97.7C17.3 -95.3 34.5 -92.8 48.9 -84.7C63.2 -76.5 74.6 -62.6 82.3 -47.5C89.9 -32.4 93.8 -16.2 97.8 0L0 0Z" fill="#fa9845"></path><path d="M0 -48.9C8.6 -47.6 17.3 -46.4 24.4 -42.3C31.6 -38.2 37.3 -31.3 41.1 -23.8C45 -16.2 46.9 -8.1 48.9 0L0 0Z" fill="#fbae3c"></path></g></svg>