<svg id="visual" viewBox="0 0 1920 1080" width="1920" height="1080" xmlns="http://www.w3.org/2000/svg" xmlns:xlink="http://www.w3.org/1999/xlink" version="1.1"><rect x="0" y="0" width="1920" height="1080" fill="#001220"></rect><defs><linearGradient id="grad1_0" x1="43.8%" y1="0%" x2="100%" y2="100%"><stop offset="14.444444444444446%" stop-color="#fbae3c" stop-opacity="1"></stop><stop offset="85.55555555555554%" stop-color="#fbae3c" stop-opacity="1"></stop></linearGradient></defs><defs><linearGradient id="grad1_1" x1="43.8%" y1="0%" x2="100%" y2="100%"><stop offset="14.444444444444446%" stop-color="#fbae3c" stop-opacity="1"></stop><stop offset="85.55555555555554%" stop-color="#f48350" stop-opacity="1"></stop></linearGradient></defs><defs><linearGradient id="grad1_2" x1="43.8%" y1="0%" x2="100%" y2="100%"><stop offset="14.444444444444446%" stop-color="#d96162" stop-opacity="1"></stop><stop offset="85.55555555555554%" stop-color="#f48350" stop-opacity="1"></stop></linearGradient></defs><defs><linearGradient id="grad1_3" x1="43.8%" y1="0%" x2="100%" y2="100%"><stop offset="14.444444444444446%" stop-color="#d96162" stop-opacity="1"></stop><stop offset="85.55555555555554%" stop-color="#af4b6d" stop-opacity="1"></stop></linearGradient></defs><defs><linearGradient id="grad1_4" x1="43.8%" y1="0%" x2="100%" y2="100%"><stop offset="14.444444444444446%" stop-color="#7c3e6b" stop-opacity="1"></stop><stop offset="85.55555555555554%" stop-color="#af4b6d" stop-opacity="1"></stop></linearGradient></defs><defs><linearGradient id="grad1_5" x1="43.8%" y1="0%" x2="100%" y2="100%"><stop offset="14.444444444444446%" stop-color="#7c3e6b" stop-opacity="1"></stop><stop offset="85.55555555555554%" stop-color="#49335c" stop-opacity="1"></stop></linearGradient></defs><defs><linearGradient id="grad1_6" x1="43.8%" y1="0%" x2="100%" y2="100%"><stop offset="14.444444444444446%" stop-color="#1d2540" stop-opacity="1"></stop><stop offset="85.55555555555554%" stop-color="#49335c" stop-opacity="1"></stop></linearGradient></defs><defs><linearGradient id="grad1_7" x1="43.8%" y1="0%" x2="100%" y2="100%"><stop offset="14.444444444444446%" stop-color="#1d2540" stop-opacity="1"></stop><stop offset="85.55555555555554%" stop-color="#001220" stop-opacity="1"></stop></linearGradient></defs><defs><linearGradient id="grad2_0" x1="0%" y1="0%" x2="56.3%" y2="100%"><stop offset="14.444444444444446%" stop-color="#fbae3c" stop-opacity="1"></stop><stop offset="85.55555555555554%" stop-color="#fbae3c" stop-opacity="1"></stop></linearGradient></defs><defs><linearGradient id="grad2_1" x1="0%" y1="0%" x2="56.3%" y2="100%"><stop offset="14.444444444444446%" stop-color="#f48350" stop-opacity="1"></stop><stop offset="85.55555555555554%" stop-color="#fbae3c" stop-opacity="1"></stop></linearGradient></defs><defs><linearGradient id="grad2_2" x1="0%" y1="0%" x2="56.3%" y2="100%"><stop offset="14.444444444444446%" stop-color="#f48350" stop-opacity="1"></stop><stop offset="85.55555555555554%" stop-color="#d96162" stop-opacity="1"></stop></linearGradient></defs><defs><linearGradient id="grad2_3" x1="0%" y1="0%" x2="56.3%" y2="100%"><stop offset="14.444444444444446%" stop-color="#af4b6d" stop-opacity="1"></stop><stop offset="85.55555555555554%" stop-color="#d96162" stop-opacity="1"></stop></linearGradient></defs><defs><linearGradient id="grad2_4" x1="0%" y1="0%" x2="56.3%" y2="100%"><stop offset="14.444444444444446%" stop-color="#af4b6d" stop-opacity="1"></stop><stop offset="85.55555555555554%" stop-color="#7c3e6b" stop-opacity="1"></stop></linearGradient></defs><defs><linearGradient id="grad2_5" x1="0%" y1="0%" x2="56.3%" y2="100%"><stop offset="14.444444444444446%" stop-color="#49335c" stop-opacity="1"></stop><stop offset="85.55555555555554%" stop-color="#7c3e6b" stop-opacity="1"></stop></linearGradient></defs><defs><linearGradient id="grad2_6" x1="0%" y1="0%" x2="56.3%" y2="100%"><stop offset="14.444444444444446%" stop-color="#49335c" stop-opacity="1"></stop><stop offset="85.55555555555554%" stop-color="#1d2540" stop-opacity="1"></stop></linearGradient></defs><defs><linearGradient id="grad2_7" x1="0%" y1="0%" x2="56.3%" y2="100%"><stop offset="14.444444444444446%" stop-color="#001220" stop-opacity="1"></stop><stop offset="85.55555555555554%" stop-color="#1d2540" stop-opacity="1"></stop></linearGradient></defs><g transform="translate(1920, 0)"><path d="M0 810C-142.5 789.3 -285.1 768.6 -405 701.5C-524.9 634.3 -622.2 520.7 -685.9 396C-749.6 271.3 -779.8 135.7 -810 0L0 0Z" fill="#0c1c30"></path><path d="M0 708.8C-124.7 690.7 -249.5 672.6 -354.4 613.8C-459.3 555 -544.4 455.6 -600.2 346.5C-655.9 237.4 -682.3 118.7 -708.7 0L0 0Z" fill="#312c4f"></path><path d="M0 607.5C-106.9 592 -213.8 576.5 -303.7 526.1C-393.7 475.7 -466.6 390.5 -514.4 297C-562.2 203.5 -584.9 101.8 -607.5 0L0 0Z" fill="#623965"></path><path d="M0 506.3C-89.1 493.3 -178.2 480.4 -253.1 438.4C-328.1 396.4 -388.9 325.4 -428.7 247.5C-468.5 169.6 -487.4 84.8 -506.2 0L0 0Z" fill="#96446e"></path><path d="M0 405C-71.3 394.7 -142.5 384.3 -202.5 350.7C-262.5 317.2 -311.1 260.3 -342.9 198C-374.8 135.7 -389.9 67.8 -405 0L0 0Z" fill="#c55469"></path><path d="M0 303.8C-53.5 296 -106.9 288.2 -151.9 263.1C-196.8 237.9 -233.3 195.2 -257.2 148.5C-281.1 101.8 -292.4 50.9 -303.7 0L0 0Z" fill="#e9705a"></path><path d="M0 202.5C-35.6 197.3 -71.3 192.2 -101.2 175.4C-131.2 158.6 -155.5 130.2 -171.5 99C-187.4 67.8 -195 33.9 -202.5 0L0 0Z" fill="#fa9845"></path><path d="M0 101.3C-17.8 98.7 -35.6 96.1 -50.6 87.7C-65.6 79.3 -77.8 65.1 -85.7 49.5C-93.7 33.9 -97.5 17 -101.2 0L0 0Z" fill="#fbae3c"></path></g><g transform="translate(0, 1080)"><path d="M0 -810C144.2 -790.3 288.3 -770.5 405 -701.5C521.7 -632.4 610.8 -514.1 673.8 -389C736.7 -263.9 773.3 -131.9 810 0L0 0Z" fill="#0c1c30"></path><path d="M0 -708.7C126.1 -691.5 252.3 -674.2 354.4 -613.8C456.5 -553.4 534.5 -449.9 589.5 -340.4C644.6 -230.9 676.7 -115.4 708.8 0L0 0Z" fill="#312c4f"></path><path d="M0 -607.5C108.1 -592.7 216.2 -577.9 303.7 -526.1C391.3 -474.3 458.1 -385.6 505.3 -291.8C552.5 -197.9 580 -99 607.5 0L0 0Z" fill="#623965"></path><path d="M0 -506.2C90.1 -493.9 180.2 -481.6 253.1 -438.4C326 -395.3 381.8 -321.3 421.1 -243.1C460.4 -164.9 483.3 -82.5 506.3 0L0 0Z" fill="#96446e"></path><path d="M0 -405C72.1 -395.1 144.2 -385.3 202.5 -350.7C260.8 -316.2 305.4 -257.1 336.9 -194.5C368.3 -131.9 386.7 -66 405 0L0 0Z" fill="#c55469"></path><path d="M0 -303.7C54.1 -296.3 108.1 -288.9 151.9 -263.1C195.6 -237.2 229.1 -192.8 252.7 -145.9C276.3 -99 290 -49.5 303.8 0L0 0Z" fill="#e9705a"></path><path d="M0 -202.5C36 -197.6 72.1 -192.6 101.2 -175.4C130.4 -158.1 152.7 -128.5 168.4 -97.3C184.2 -66 193.3 -33 202.5 0L0 0Z" fill="#fa9845"></path><path d="M0 -101.2C18 -98.8 36 -96.3 50.6 -87.7C65.2 -79.1 76.4 -64.3 84.2 -48.6C92.1 -33 96.7 -16.5 101.3 0L0 0Z" fill="#fbae3c"></path></g></svg>