<svg id="visual" viewBox="0 0 1920 1080" width="1920" height="1080" xmlns="http://www.w3.org/2000/svg" xmlns:xlink="http://www.w3.org/1999/xlink" version="1.1"><rect x="0" y="0" width="1920" height="1080" fill="#001220"></rect><defs><linearGradient id="grad1_0" x1="43.8%" y1="100%" x2="100%" y2="0%"><stop offset="14.444444444444446%" stop-color="#fbae3c" stop-opacity="1"></stop><stop offset="85.55555555555554%" stop-color="#fbae3c" stop-opacity="1"></stop></linearGradient></defs><defs><linearGradient id="grad1_1" x1="43.8%" y1="100%" x2="100%" y2="0%"><stop offset="14.444444444444446%" stop-color="#fbae3c" stop-opacity="1"></stop><stop offset="85.55555555555554%" stop-color="#f48350" stop-opacity="1"></stop></linearGradient></defs><defs><linearGradient id="grad1_2" x1="43.8%" y1="100%" x2="100%" y2="0%"><stop offset="14.444444444444446%" stop-color="#d96162" stop-opacity="1"></stop><stop offset="85.55555555555554%" stop-color="#f48350" stop-opacity="1"></stop></linearGradient></defs><defs><linearGradient id="grad1_3" x1="43.8%" y1="100%" x2="100%" y2="0%"><stop offset="14.444444444444446%" stop-color="#d96162" stop-opacity="1"></stop><stop offset="85.55555555555554%" stop-color="#af4b6d" stop-opacity="1"></stop></linearGradient></defs><defs><linearGradient id="grad1_4" x1="43.8%" y1="100%" x2="100%" y2="0%"><stop offset="14.444444444444446%" stop-color="#7c3e6b" stop-opacity="1"></stop><stop offset="85.55555555555554%" stop-color="#af4b6d" stop-opacity="1"></stop></linearGradient></defs><defs><linearGradient id="grad1_5" x1="43.8%" y1="100%" x2="100%" y2="0%"><stop offset="14.444444444444446%" stop-color="#7c3e6b" stop-opacity="1"></stop><stop offset="85.55555555555554%" stop-color="#49335c" stop-opacity="1"></stop></linearGradient></defs><defs><linearGradient id="grad1_6" x1="43.8%" y1="100%" x2="100%" y2="0%"><stop offset="14.444444444444446%" stop-color="#1d2540" stop-opacity="1"></stop><stop offset="85.55555555555554%" stop-color="#49335c" stop-opacity="1"></stop></linearGradient></defs><defs><linearGradient id="grad1_7" x1="43.8%" y1="100%" x2="100%" y2="0%"><stop offset="14.444444444444446%" stop-color="#1d2540" stop-opacity="1"></stop><stop offset="85.55555555555554%" stop-color="#001220" stop-opacity="1"></stop></linearGradient></defs><defs><linearGradient id="grad2_0" x1="0%" y1="100%" x2="56.3%" y2="0%"><stop offset="14.444444444444446%" stop-color="#fbae3c" stop-opacity="1"></stop><stop offset="85.55555555555554%" stop-color="#fbae3c" stop-opacity="1"></stop></linearGradient></defs><defs><linearGradient id="grad2_1" x1="0%" y1="100%" x2="56.3%" y2="0%"><stop offset="14.444444444444446%" stop-color="#f48350" stop-opacity="1"></stop><stop offset="85.55555555555554%" stop-color="#fbae3c" stop-opacity="1"></stop></linearGradient></defs><defs><linearGradient id="grad2_2" x1="0%" y1="100%" x2="56.3%" y2="0%"><stop offset="14.444444444444446%" stop-color="#f48350" stop-opacity="1"></stop><stop offset="85.55555555555554%" stop-color="#d96162" stop-opacity="1"></stop></linearGradient></defs><defs><linearGradient id="grad2_3" x1="0%" y1="100%" x2="56.3%" y2="0%"><stop offset="14.444444444444446%" stop-color="#af4b6d" stop-opacity="1"></stop><stop offset="85.55555555555554%" stop-color="#d96162" stop-opacity="1"></stop></linearGradient></defs><defs><linearGradient id="grad2_4" x1="0%" y1="100%" x2="56.3%" y2="0%"><stop offset="14.444444444444446%" stop-color="#af4b6d" stop-opacity="1"></stop><stop offset="85.55555555555554%" stop-color="#7c3e6b" stop-opacity="1"></stop></linearGradient></defs><defs><linearGradient id="grad2_5" x1="0%" y1="100%" x2="56.3%" y2="0%"><stop offset="14.444444444444446%" stop-color="#49335c" stop-opacity="1"></stop><stop offset="85.55555555555554%" stop-color="#7c3e6b" stop-opacity="1"></stop></linearGradient></defs><defs><linearGradient id="grad2_6" x1="0%" y1="100%" x2="56.3%" y2="0%"><stop offset="14.444444444444446%" stop-color="#49335c" stop-opacity="1"></stop><stop offset="85.55555555555554%" stop-color="#1d2540" stop-opacity="1"></stop></linearGradient></defs><defs><linearGradient id="grad2_7" x1="0%" y1="100%" x2="56.3%" y2="0%"><stop offset="14.444444444444446%" stop-color="#001220" stop-opacity="1"></stop><stop offset="85.55555555555554%" stop-color="#1d2540" stop-opacity="1"></stop></linearGradient></defs><g transform="translate(1920, 1080)"><path d="M-1080 0C-1048.9 -37.7 -1017.8 -75.3 -1030.4 -125.1C-1043.1 -174.9 -1099.6 -236.9 -1007.8 -248.4C-916.1 -260 -676.2 -221.1 -597.5 -226.6C-518.8 -232 -601.4 -281.8 -683.6 -358.8C-765.8 -435.7 -847.6 -540 -819.7 -565.8C-791.8 -591.6 -654.3 -539 -553.1 -490C-452 -441.1 -387.3 -395.7 -399.9 -451.4C-412.4 -507 -502.3 -663.8 -538 -779.4C-573.7 -894.9 -555.2 -969.3 -501.9 -956.3C-448.6 -943.3 -360.3 -842.9 -302.1 -796.6C-244 -750.4 -215.9 -758.2 -187.4 -760.2C-158.8 -762.3 -129.8 -758.7 -98.5 -811C-67.2 -863.4 -33.6 -971.7 0 -1080L0 0Z" fill="#0c1c30"></path><path d="M-945 0C-917.8 -33 -890.5 -65.9 -901.6 -109.5C-912.7 -153.1 -962.1 -207.2 -881.9 -217.4C-801.6 -227.5 -591.6 -193.5 -522.8 -198.3C-453.9 -203 -526.2 -246.6 -598.1 -313.9C-670 -381.3 -741.6 -472.5 -717.2 -495.1C-692.8 -517.7 -572.5 -471.7 -484 -428.8C-395.5 -385.9 -338.9 -346.2 -349.9 -394.9C-360.9 -443.7 -439.5 -580.8 -470.7 -681.9C-502 -783.1 -485.8 -848.1 -439.2 -836.8C-392.5 -825.4 -315.2 -737.6 -264.4 -697.1C-213.5 -656.6 -188.9 -663.4 -164 -665.2C-139 -667 -113.6 -663.9 -86.2 -709.7C-58.8 -755.5 -29.4 -850.2 0 -945L0 0Z" fill="#312c4f"></path><path d="M-810 0C-786.7 -28.2 -763.3 -56.5 -772.8 -93.8C-782.3 -131.2 -824.7 -177.6 -755.9 -186.3C-687.1 -195 -507.1 -165.9 -448.1 -169.9C-389.1 -174 -451 -211.3 -512.7 -269.1C-574.3 -326.8 -635.7 -405 -614.8 -424.3C-593.9 -443.7 -490.7 -404.3 -414.9 -367.5C-339 -330.8 -290.5 -296.8 -299.9 -338.5C-309.3 -380.3 -376.7 -497.9 -403.5 -584.5C-430.2 -671.2 -416.4 -727 -376.4 -717.2C-336.4 -707.5 -270.2 -632.2 -226.6 -597.5C-183 -562.8 -161.9 -568.6 -140.5 -570.2C-119.1 -571.8 -97.3 -569 -73.9 -608.3C-50.4 -647.5 -25.2 -728.8 0 -810L0 0Z" fill="#623965"></path><path d="M-675 0C-655.5 -23.5 -636.1 -47.1 -644 -78.2C-651.9 -109.3 -687.2 -148 -629.9 -155.3C-572.6 -162.5 -422.6 -138.2 -373.4 -141.6C-324.2 -145 -375.9 -176.1 -427.2 -224.2C-478.6 -272.3 -529.7 -337.5 -512.3 -353.6C-494.9 -369.8 -408.9 -336.9 -345.7 -306.3C-282.5 -275.7 -242.1 -247.3 -249.9 -282.1C-257.8 -316.9 -313.9 -414.9 -336.2 -487.1C-358.5 -559.3 -347 -605.8 -313.7 -597.7C-280.3 -589.6 -225.2 -526.8 -188.8 -497.9C-152.5 -469 -135 -473.8 -117.1 -475.2C-99.3 -476.5 -81.1 -474.2 -61.5 -506.9C-42 -539.6 -21 -607.3 0 -675L0 0Z" fill="#96446e"></path><path d="M-540 0C-524.4 -18.8 -508.9 -37.7 -515.2 -62.6C-521.6 -87.5 -549.8 -118.4 -503.9 -124.2C-458 -130 -338.1 -110.6 -298.7 -113.3C-259.4 -116 -300.7 -140.9 -341.8 -179.4C-382.9 -217.9 -423.8 -270 -409.8 -282.9C-395.9 -295.8 -327.1 -269.5 -276.6 -245C-226 -220.5 -193.7 -197.8 -199.9 -225.7C-206.2 -253.5 -251.1 -331.9 -269 -389.7C-286.8 -447.5 -277.6 -484.6 -251 -478.1C-224.3 -471.6 -180.1 -421.5 -151.1 -398.3C-122 -375.2 -108 -379.1 -93.7 -380.1C-79.4 -381.2 -64.9 -379.4 -49.2 -405.5C-33.6 -431.7 -16.8 -485.8 0 -540L0 0Z" fill="#c55469"></path><path d="M-405 0C-393.3 -14.1 -381.7 -28.2 -386.4 -46.9C-391.2 -65.6 -412.3 -88.8 -377.9 -93.2C-343.5 -97.5 -253.6 -82.9 -224.1 -85C-194.5 -87 -225.5 -105.7 -256.3 -134.5C-287.2 -163.4 -317.8 -202.5 -307.4 -212.2C-296.9 -221.9 -245.4 -202.1 -207.4 -183.8C-169.5 -165.4 -145.2 -148.4 -149.9 -169.3C-154.7 -190.1 -188.3 -248.9 -201.7 -292.3C-215.1 -335.6 -208.2 -363.5 -188.2 -358.6C-168.2 -353.7 -135.1 -316.1 -113.3 -298.7C-91.5 -281.4 -81 -284.3 -70.3 -285.1C-59.6 -285.9 -48.7 -284.5 -36.9 -304.1C-25.2 -323.8 -12.6 -364.4 0 -405L0 0Z" fill="#e9705a"></path><path d="M-270 0C-262.2 -9.4 -254.4 -18.8 -257.6 -31.3C-260.8 -43.7 -274.9 -59.2 -252 -62.1C-229 -65 -169 -55.3 -149.4 -56.6C-129.7 -58 -150.3 -70.4 -170.9 -89.7C-191.4 -108.9 -211.9 -135 -204.9 -141.4C-198 -147.9 -163.6 -134.8 -138.3 -122.5C-113 -110.3 -96.8 -98.9 -100 -112.8C-103.1 -126.8 -125.6 -166 -134.5 -194.8C-143.4 -223.7 -138.8 -242.3 -125.5 -239.1C-112.1 -235.8 -90.1 -210.7 -75.5 -199.2C-61 -187.6 -54 -189.5 -46.8 -190.1C-39.7 -190.6 -32.4 -189.7 -24.6 -202.8C-16.8 -215.8 -8.4 -242.9 0 -270L0 0Z" fill="#fa9845"></path><path d="M-135 0C-131.1 -4.7 -127.2 -9.4 -128.8 -15.6C-130.4 -21.9 -137.4 -29.6 -126 -31.1C-114.5 -32.5 -84.5 -27.6 -74.7 -28.3C-64.8 -29 -75.2 -35.2 -85.4 -44.8C-95.7 -54.5 -105.9 -67.5 -102.5 -70.7C-99 -74 -81.8 -67.4 -69.1 -61.3C-56.5 -55.1 -48.4 -49.5 -50 -56.4C-51.6 -63.4 -62.8 -83 -67.2 -97.4C-71.7 -111.9 -69.4 -121.2 -62.7 -119.5C-56.1 -117.9 -45 -105.4 -37.8 -99.6C-30.5 -93.8 -27 -94.8 -23.4 -95C-19.9 -95.3 -16.2 -94.8 -12.3 -101.4C-8.4 -107.9 -4.2 -121.5 0 -135L0 0Z" fill="#fbae3c"></path></g><g transform="translate(0, 0)"><path d="M1080 0C825.5 15.8 571 31.7 552.9 67.1C534.8 102.6 753.1 157.7 870 214.4C986.8 271.2 1002.1 329.6 1006.1 381.6C1010 433.6 1002.6 479.2 956.3 501.9C910 524.6 824.8 524.5 753.9 520.3C682.9 516.2 626.2 508.2 620.5 549.7C614.9 591.2 660.3 682.3 666.4 752.3C672.6 822.2 639.4 871 548.8 795C458.1 719 309.9 518.3 268.1 510.9C226.4 503.6 291.2 689.6 298.9 788.2C306.7 886.8 257.5 897.9 213.5 866.1C169.4 834.3 130.4 759.7 95.7 788.2C61 816.7 30.5 948.4 0 1080L0 0Z" fill="#0c1c30"></path><path d="M945 0C722.3 13.9 499.7 27.7 483.8 58.7C468 89.8 659 138 761.2 187.6C863.4 237.3 876.9 288.4 880.3 333.9C883.8 379.4 877.3 419.3 836.8 439.2C796.2 459 721.7 458.9 659.6 455.3C597.5 451.7 547.9 444.7 543 481C538 517.3 577.8 597 583.1 658.2C588.5 719.4 559.5 762.1 480.2 695.6C400.8 629.1 271.1 453.5 234.6 447C198.1 440.6 254.8 603.4 261.6 689.7C268.4 775.9 225.3 785.6 186.8 757.8C148.2 730 114.1 664.7 83.7 689.7C53.4 714.6 26.7 829.8 0 945L0 0Z" fill="#312c4f"></path><path d="M810 0C619.1 11.9 428.3 23.8 414.7 50.4C401.1 77 564.9 118.3 652.5 160.8C740.1 203.4 751.6 247.2 754.6 286.2C757.5 325.2 751.9 359.4 717.2 376.4C682.5 393.5 618.6 393.3 565.4 390.3C512.2 387.2 469.6 381.2 465.4 412.3C461.1 443.4 495.2 511.7 499.8 564.2C504.4 616.6 479.6 653.2 411.6 596.3C343.6 539.3 232.4 388.7 201.1 383.2C169.8 377.7 218.4 517.2 224.2 591.2C230 665.1 193.2 673.4 160.1 649.6C127 625.7 97.8 569.8 71.8 591.2C45.7 612.5 22.9 711.3 0 810L0 0Z" fill="#623965"></path><path d="M675 0C515.9 9.9 356.9 19.8 345.6 42C334.3 64.1 470.7 98.6 543.7 134C616.7 169.5 626.3 206 628.8 238.5C631.3 271 626.6 299.5 597.7 313.7C568.7 327.9 515.5 327.8 471.2 325.2C426.8 322.7 391.4 317.6 387.8 343.6C384.3 369.5 412.7 426.4 416.5 470.2C420.4 513.9 399.6 544.4 343 496.9C286.3 449.4 193.7 323.9 167.6 319.3C141.5 314.7 182 431 186.8 492.6C191.7 554.2 161 561.2 133.4 541.3C105.9 521.4 81.5 474.8 59.8 492.6C38.1 510.5 19.1 592.7 0 675L0 0Z" fill="#96446e"></path><path d="M540 0C412.8 7.9 285.5 15.8 276.5 33.6C267.4 51.3 376.6 78.8 435 107.2C493.4 135.6 501.1 164.8 503 190.8C505 216.8 501.3 239.6 478.1 251C455 262.3 412.4 262.2 376.9 260.2C341.4 258.1 313.1 254.1 310.3 274.9C307.4 295.6 330.1 341.2 333.2 376.1C336.3 411.1 319.7 435.5 274.4 397.5C229 359.5 154.9 259.1 134.1 255.5C113.2 251.8 145.6 344.8 149.5 394.1C153.4 443.4 128.8 448.9 106.7 433C84.7 417.2 65.2 379.8 47.9 394.1C30.5 408.4 15.2 474.2 0 540L0 0Z" fill="#c55469"></path><path d="M405 0C309.6 5.9 214.1 11.9 207.4 25.2C200.6 38.5 282.4 59.1 326.2 80.4C370 101.7 375.8 123.6 377.3 143.1C378.8 162.6 376 179.7 358.6 188.2C341.2 196.7 309.3 196.7 282.7 195.1C256.1 193.6 234.8 190.6 232.7 206.1C230.6 221.7 247.6 255.9 249.9 282.1C252.2 308.3 239.8 326.6 205.8 298.1C171.8 269.6 116.2 194.3 100.6 191.6C84.9 188.8 109.2 258.6 112.1 295.6C115 332.5 96.6 336.7 80.1 324.8C63.5 312.9 48.9 284.9 35.9 295.6C22.9 306.3 11.4 355.6 0 405L0 0Z" fill="#e9705a"></path><path d="M270 0C206.4 4 142.8 7.9 138.2 16.8C133.7 25.7 188.3 39.4 217.5 53.6C246.7 67.8 250.5 82.4 251.5 95.4C252.5 108.4 250.6 119.8 239.1 125.5C227.5 131.2 206.2 131.1 188.5 130.1C170.7 129.1 156.5 127.1 155.1 137.4C153.7 147.8 165.1 170.6 166.6 188.1C168.1 205.5 159.9 217.7 137.2 198.8C114.5 179.8 77.5 129.6 67 127.7C56.6 125.9 72.8 172.4 74.7 197.1C76.7 221.7 64.4 224.5 53.4 216.5C42.3 208.6 32.6 189.9 23.9 197.1C15.2 204.2 7.6 237.1 0 270L0 0Z" fill="#fa9845"></path><path d="M135 0C103.2 2 71.4 4 69.1 8.4C66.9 12.8 94.1 19.7 108.7 26.8C123.3 33.9 125.3 41.2 125.8 47.7C126.3 54.2 125.3 59.9 119.5 62.7C113.7 65.6 103.1 65.6 94.2 65C85.4 64.5 78.3 63.5 77.6 68.7C76.9 73.9 82.5 85.3 83.3 94C84.1 102.8 79.9 108.9 68.6 99.4C57.3 89.9 38.7 64.8 33.5 63.9C28.3 62.9 36.4 86.2 37.4 98.5C38.3 110.8 32.2 112.2 26.7 108.3C21.2 104.3 16.3 95 12 98.5C7.6 102.1 3.8 118.5 0 135L0 0Z" fill="#fbae3c"></path></g></svg>