<svg id="visual" viewBox="0 0 800 1080" width="800" height="1080" xmlns="http://www.w3.org/2000/svg" xmlns:xlink="http://www.w3.org/1999/xlink" version="1.1"><rect x="0" y="0" width="800" height="1080" fill="#001220"></rect><defs><linearGradient id="grad1_0" x1="0%" y1="100%" x2="100%" y2="0%"><stop offset="30%" stop-color="#fbae3c" stop-opacity="1"></stop><stop offset="70%" stop-color="#fbae3c" stop-opacity="1"></stop></linearGradient></defs><defs><linearGradient id="grad1_1" x1="0%" y1="100%" x2="100%" y2="0%"><stop offset="30%" stop-color="#fbae3c" stop-opacity="1"></stop><stop offset="70%" stop-color="#f48350" stop-opacity="1"></stop></linearGradient></defs><defs><linearGradient id="grad1_2" x1="0%" y1="100%" x2="100%" y2="0%"><stop offset="30%" stop-color="#d96162" stop-opacity="1"></stop><stop offset="70%" stop-color="#f48350" stop-opacity="1"></stop></linearGradient></defs><defs><linearGradient id="grad1_3" x1="0%" y1="100%" x2="100%" y2="0%"><stop offset="30%" stop-color="#d96162" stop-opacity="1"></stop><stop offset="70%" stop-color="#af4b6d" stop-opacity="1"></stop></linearGradient></defs><defs><linearGradient id="grad1_4" x1="0%" y1="100%" x2="100%" y2="0%"><stop offset="30%" stop-color="#7c3e6b" stop-opacity="1"></stop><stop offset="70%" stop-color="#af4b6d" stop-opacity="1"></stop></linearGradient></defs><defs><linearGradient id="grad1_5" x1="0%" y1="100%" x2="100%" y2="0%"><stop offset="30%" stop-color="#7c3e6b" stop-opacity="1"></stop><stop offset="70%" stop-color="#49335c" stop-opacity="1"></stop></linearGradient></defs><defs><linearGradient id="grad1_6" x1="0%" y1="100%" x2="100%" y2="0%"><stop offset="30%" stop-color="#1d2540" stop-opacity="1"></stop><stop offset="70%" stop-color="#49335c" stop-opacity="1"></stop></linearGradient></defs><defs><linearGradient id="grad1_7" x1="0%" y1="100%" x2="100%" y2="0%"><stop offset="30%" stop-color="#1d2540" stop-opacity="1"></stop><stop offset="70%" stop-color="#001220" stop-opacity="1"></stop></linearGradient></defs><defs><linearGradient id="grad2_0" x1="0%" y1="100%" x2="100%" y2="0%"><stop offset="30%" stop-color="#fbae3c" stop-opacity="1"></stop><stop offset="70%" stop-color="#fbae3c" stop-opacity="1"></stop></linearGradient></defs><defs><linearGradient id="grad2_1" x1="0%" y1="100%" x2="100%" y2="0%"><stop offset="30%" stop-color="#f48350" stop-opacity="1"></stop><stop offset="70%" stop-color="#fbae3c" stop-opacity="1"></stop></linearGradient></defs><defs><linearGradient id="grad2_2" x1="0%" y1="100%" x2="100%" y2="0%"><stop offset="30%" stop-color="#f48350" stop-opacity="1"></stop><stop offset="70%" stop-color="#d96162" stop-opacity="1"></stop></linearGradient></defs><defs><linearGradient id="grad2_3" x1="0%" y1="100%" x2="100%" y2="0%"><stop offset="30%" stop-color="#af4b6d" stop-opacity="1"></stop><stop offset="70%" stop-color="#d96162" stop-opacity="1"></stop></linearGradient></defs><defs><linearGradient id="grad2_4" x1="0%" y1="100%" x2="100%" y2="0%"><stop offset="30%" stop-color="#af4b6d" stop-opacity="1"></stop><stop offset="70%" stop-color="#7c3e6b" stop-opacity="1"></stop></linearGradient></defs><defs><linearGradient id="grad2_5" x1="0%" y1="100%" x2="100%" y2="0%"><stop offset="30%" stop-color="#49335c" stop-opacity="1"></stop><stop offset="70%" stop-color="#7c3e6b" stop-opacity="1"></stop></linearGradient></defs><defs><linearGradient id="grad2_6" x1="0%" y1="100%" x2="100%" y2="0%"><stop offset="30%" stop-color="#49335c" stop-opacity="1"></stop><stop offset="70%" stop-color="#1d2540" stop-opacity="1"></stop></linearGradient></defs><defs><linearGradient id="grad2_7" x1="0%" y1="100%" x2="100%" y2="0%"><stop offset="30%" stop-color="#001220" stop-opacity="1"></stop><stop offset="70%" stop-color="#1d2540" stop-opacity="1"></stop></linearGradient></defs><g transform="translate(800, 1080)"><path d="M-672 0C-683.7 -32.4 -695.3 -64.8 -636.3 -77.3C-577.3 -89.7 -447.7 -82.3 -455.4 -112.2C-463 -142.2 -607.8 -209.6 -628.3 -238.3C-648.8 -267 -545 -256.8 -477.3 -250.5C-409.5 -244.1 -377.9 -241.6 -357.2 -246.5C-336.4 -251.5 -326.5 -264.1 -325.6 -288.5C-324.7 -312.8 -332.9 -349 -313 -353.3C-293.1 -357.6 -245 -330.1 -209.6 -303.7C-174.2 -277.3 -151.4 -252.1 -157.5 -300.2C-163.7 -348.2 -198.8 -469.6 -196.1 -517.1C-193.4 -564.5 -152.7 -538.1 -121.6 -493.2C-90.4 -448.4 -68.7 -385.2 -50 -412C-31.3 -438.7 -15.7 -555.4 0 -672L0 0Z" fill="#0c1c30"></path><path d="M-588 0C-598.2 -28.3 -608.4 -56.7 -556.8 -67.6C-505.2 -78.5 -391.8 -72 -398.5 -98.2C-405.1 -124.4 -531.9 -183.4 -549.8 -208.5C-567.7 -233.6 -476.9 -224.7 -417.6 -219.2C-358.3 -213.6 -330.7 -211.4 -312.5 -215.7C-294.4 -220.1 -285.7 -231.1 -284.9 -252.4C-284.1 -273.7 -291.3 -305.4 -273.9 -309.1C-256.4 -312.9 -214.4 -288.8 -183.4 -265.7C-152.4 -242.6 -132.5 -220.6 -137.8 -262.6C-143.2 -304.7 -174 -410.9 -171.6 -452.4C-169.2 -494 -133.6 -470.8 -106.4 -431.6C-79.1 -392.4 -60.1 -337.1 -43.8 -360.5C-27.4 -383.9 -13.7 -485.9 0 -588L0 0Z" fill="#312c4f"></path><path d="M-504 0C-512.7 -24.3 -521.5 -48.6 -477.2 -57.9C-433 -67.3 -335.8 -61.7 -341.5 -84.2C-347.2 -106.7 -455.9 -157.2 -471.3 -178.7C-486.6 -200.2 -408.7 -192.6 -357.9 -187.9C-307.2 -183.1 -283.5 -181.2 -267.9 -184.9C-252.3 -188.6 -244.9 -198.1 -244.2 -216.3C-243.5 -234.6 -249.7 -261.7 -234.7 -265C-219.8 -268.2 -183.8 -247.5 -157.2 -227.8C-130.6 -208 -113.5 -189.1 -118.2 -225.1C-122.8 -261.2 -149.1 -352.2 -147.1 -387.8C-145 -423.4 -114.6 -403.5 -91.2 -369.9C-67.8 -336.3 -51.5 -288.9 -37.5 -309C-23.5 -329 -11.8 -416.5 0 -504L0 0Z" fill="#623965"></path><path d="M-420 0C-427.3 -20.2 -434.6 -40.5 -397.7 -48.3C-360.8 -56.1 -279.8 -51.4 -284.6 -70.1C-289.4 -88.9 -379.9 -131 -392.7 -148.9C-405.5 -166.8 -340.6 -160.5 -298.3 -156.6C-256 -152.6 -236.2 -151 -223.2 -154.1C-210.3 -157.2 -204 -165.1 -203.5 -180.3C-203 -195.5 -208.1 -218.1 -195.6 -220.8C-183.2 -223.5 -153.1 -206.3 -131 -189.8C-108.9 -173.3 -94.6 -157.6 -98.5 -187.6C-102.3 -217.7 -124.3 -293.5 -122.6 -323.2C-120.8 -352.8 -95.5 -336.3 -76 -308.3C-56.5 -280.3 -42.9 -240.8 -31.3 -257.5C-19.6 -274.2 -9.8 -347.1 0 -420L0 0Z" fill="#96446e"></path><path d="M-336 0C-341.8 -16.2 -347.7 -32.4 -318.2 -38.6C-288.7 -44.9 -223.9 -41.1 -227.7 -56.1C-231.5 -71.1 -303.9 -104.8 -314.2 -119.1C-324.4 -133.5 -272.5 -128.4 -238.6 -125.2C-204.8 -122.1 -189 -120.8 -178.6 -123.3C-168.2 -125.8 -163.2 -132 -162.8 -144.2C-162.4 -156.4 -166.5 -174.5 -156.5 -176.6C-146.5 -178.8 -122.5 -165 -104.8 -151.8C-87.1 -138.7 -75.7 -126 -78.8 -150.1C-81.9 -174.1 -99.4 -234.8 -98 -258.5C-96.7 -282.3 -76.4 -269 -60.8 -246.6C-45.2 -224.2 -34.4 -192.6 -25 -206C-15.7 -219.4 -7.8 -277.7 0 -336L0 0Z" fill="#c55469"></path><path d="M-252 0C-256.4 -12.1 -260.7 -24.3 -238.6 -29C-216.5 -33.6 -167.9 -30.8 -170.8 -42.1C-173.6 -53.3 -227.9 -78.6 -235.6 -89.4C-243.3 -100.1 -204.4 -96.3 -179 -93.9C-153.6 -91.6 -141.7 -90.6 -133.9 -92.5C-126.2 -94.3 -122.4 -99 -122.1 -108.2C-121.8 -117.3 -124.8 -130.9 -117.4 -132.5C-109.9 -134.1 -91.9 -123.8 -78.6 -113.9C-65.3 -104 -56.8 -94.5 -59.1 -112.6C-61.4 -130.6 -74.6 -176.1 -73.5 -193.9C-72.5 -211.7 -57.3 -201.8 -45.6 -185C-33.9 -168.2 -25.8 -144.5 -18.8 -154.5C-11.8 -164.5 -5.9 -208.3 0 -252L0 0Z" fill="#e9705a"></path><path d="M-168 0C-170.9 -8.1 -173.8 -16.2 -159.1 -19.3C-144.3 -22.4 -111.9 -20.6 -113.8 -28.1C-115.7 -35.6 -152 -52.4 -157.1 -59.6C-162.2 -66.7 -136.2 -64.2 -119.3 -62.6C-102.4 -61 -94.5 -60.4 -89.3 -61.6C-84.1 -62.9 -81.6 -66 -81.4 -72.1C-81.2 -78.2 -83.2 -87.2 -78.2 -88.3C-73.3 -89.4 -61.3 -82.5 -52.4 -75.9C-43.5 -69.3 -37.8 -63 -39.4 -75C-40.9 -87.1 -49.7 -117.4 -49 -129.3C-48.3 -141.1 -38.2 -134.5 -30.4 -123.3C-22.6 -112.1 -17.2 -96.3 -12.5 -103C-7.8 -109.7 -3.9 -138.8 0 -168L0 0Z" fill="#fa9845"></path><path d="M-84 0C-85.5 -4 -86.9 -8.1 -79.5 -9.7C-72.2 -11.2 -56 -10.3 -56.9 -14C-57.9 -17.8 -76 -26.2 -78.5 -29.8C-81.1 -33.4 -68.1 -32.1 -59.7 -31.3C-51.2 -30.5 -47.2 -30.2 -44.6 -30.8C-42.1 -31.4 -40.8 -33 -40.7 -36.1C-40.6 -39.1 -41.6 -43.6 -39.1 -44.2C-36.6 -44.7 -30.6 -41.3 -26.2 -38C-21.8 -34.7 -18.9 -31.5 -19.7 -37.5C-20.5 -43.5 -24.9 -58.7 -24.5 -64.6C-24.2 -70.6 -19.1 -67.3 -15.2 -61.7C-11.3 -56.1 -8.6 -48.2 -6.3 -51.5C-3.9 -54.8 -2 -69.4 0 -84L0 0Z" fill="#fbae3c"></path></g><g transform="translate(0, 0)"><path d="M672 0C589.1 15.7 506.2 31.5 523.2 63.5C540.1 95.6 656.9 143.9 632.1 155.8C607.2 167.7 440.7 143 374 141.8C307.3 140.7 340.5 163 351.5 184.5C362.5 206 351.4 226.8 317.7 219.3C284 211.7 227.8 175.8 256.7 227.5C285.7 279.1 399.8 418.3 432.4 488C464.9 557.8 415.8 558.1 351.1 508.6C286.3 459.1 205.9 359.7 167.8 319.6C129.6 279.6 133.8 298.8 144.7 381.5C155.5 464.2 173 610.4 160.8 652.5C148.7 694.6 106.8 632.6 75.1 618.5C43.3 604.4 21.7 638.2 0 672L0 0Z" fill="#0c1c30"></path><path d="M588 0C515.5 13.8 442.9 27.5 457.8 55.6C472.6 83.6 574.8 125.9 553.1 136.3C531.3 146.7 385.6 125.1 327.3 124.1C268.9 123.1 298 142.6 307.6 161.4C317.2 180.3 307.4 198.5 278 191.9C248.5 185.3 199.3 153.8 224.6 199C250 244.2 349.8 366 378.3 427C406.8 488.1 363.8 488.4 307.2 445C250.5 401.7 180.1 314.8 146.8 279.7C113.4 244.6 117.1 261.4 126.6 333.8C136.1 406.2 151.4 534.1 140.7 570.9C130.1 607.8 93.5 553.5 65.7 541.2C37.9 528.8 19 558.4 0 588L0 0Z" fill="#312c4f"></path><path d="M504 0C441.8 11.8 379.6 23.6 392.4 47.6C405.1 71.7 492.7 107.9 474.1 116.8C455.4 125.7 330.5 107.3 280.5 106.4C230.5 105.5 255.4 122.2 263.6 138.4C271.9 154.5 263.5 170.1 238.3 164.5C213 158.8 170.8 131.9 192.6 170.6C214.3 209.3 299.9 313.7 324.3 366C348.7 418.3 311.9 418.6 263.3 381.5C214.7 344.3 154.4 269.8 125.8 239.7C97.2 209.7 100.4 224.1 108.5 286.1C116.6 348.1 129.7 457.8 120.6 489.4C111.5 520.9 80.1 474.4 56.3 463.8C32.5 453.3 16.3 478.6 0 504L0 0Z" fill="#623965"></path><path d="M420 0C368.2 9.8 316.4 19.7 327 39.7C337.6 59.7 410.6 90 395.1 97.4C379.5 104.8 275.4 89.4 233.8 88.7C192.1 87.9 212.8 101.8 219.7 115.3C226.6 128.8 219.6 141.8 198.5 137C177.5 132.3 142.4 109.9 160.5 142.2C178.6 174.4 249.9 261.4 270.2 305C290.6 348.6 259.9 348.8 219.4 317.9C178.9 286.9 128.7 224.8 104.9 199.8C81 174.7 83.7 186.7 90.4 238.4C97.2 290.1 108.1 381.5 100.5 407.8C92.9 434.1 66.8 395.3 46.9 386.5C27.1 377.7 13.5 398.9 0 420L0 0Z" fill="#96446e"></path><path d="M336 0C294.6 7.9 253.1 15.7 261.6 31.8C270.1 47.8 328.5 72 316 77.9C303.6 83.8 220.3 71.5 187 70.9C153.7 70.3 170.3 81.5 175.8 92.2C181.3 103 175.7 113.4 158.8 109.6C142 105.9 113.9 87.9 128.4 113.7C142.9 139.5 199.9 209.1 216.2 244C232.4 278.9 207.9 279.1 175.5 254.3C143.2 229.5 102.9 179.9 83.9 159.8C64.8 139.8 66.9 149.4 72.3 190.7C77.8 232.1 86.5 305.2 80.4 326.2C74.3 347.3 53.4 316.3 37.5 309.2C21.7 302.2 10.8 319.1 0 336L0 0Z" fill="#c55469"></path><path d="M252 0C220.9 5.9 189.8 11.8 196.2 23.8C202.5 35.8 246.4 54 237 58.4C227.7 62.9 165.3 53.6 140.3 53.2C115.2 52.7 127.7 61.1 131.8 69.2C136 77.3 131.8 85.1 119.1 82.2C106.5 79.4 85.4 65.9 96.3 85.3C107.1 104.7 149.9 156.9 162.1 183C174.3 209.2 155.9 209.3 131.6 190.7C107.4 172.2 77.2 134.9 62.9 119.9C48.6 104.8 50.2 112 54.3 143.1C58.3 174.1 64.9 228.9 60.3 244.7C55.7 260.5 40.1 237.2 28.2 231.9C16.3 226.6 8.1 239.3 0 252L0 0Z" fill="#e9705a"></path><path d="M168 0C147.3 3.9 126.5 7.9 130.8 15.9C135 23.9 164.2 36 158 38.9C151.8 41.9 110.2 35.8 93.5 35.5C76.8 35.2 85.1 40.7 87.9 46.1C90.6 51.5 87.8 56.7 79.4 54.8C71 52.9 56.9 44 64.2 56.9C71.4 69.8 100 104.6 108.1 122C116.2 139.4 104 139.5 87.8 127.2C71.6 114.8 51.5 89.9 41.9 79.9C32.4 69.9 33.5 74.7 36.2 95.4C38.9 116 43.2 152.6 40.2 163.1C37.2 173.6 26.7 158.1 18.8 154.6C10.8 151.1 5.4 159.5 0 168L0 0Z" fill="#fa9845"></path><path d="M84 0C73.6 2 63.3 3.9 65.4 7.9C67.5 11.9 82.1 18 79 19.5C75.9 21 55.1 17.9 46.8 17.7C38.4 17.6 42.6 20.4 43.9 23.1C45.3 25.8 43.9 28.4 39.7 27.4C35.5 26.5 28.5 22 32.1 28.4C35.7 34.9 50 52.3 54 61C58.1 69.7 52 69.8 43.9 63.6C35.8 57.4 25.7 45 21 40C16.2 34.9 16.7 37.3 18.1 47.7C19.4 58 21.6 76.3 20.1 81.6C18.6 86.8 13.4 79.1 9.4 77.3C5.4 75.5 2.7 79.8 0 84L0 0Z" fill="#fbae3c"></path></g></svg>