<svg id="visual" viewBox="0 0 900 600" width="900" height="600" xmlns="http://www.w3.org/2000/svg" xmlns:xlink="http://www.w3.org/1999/xlink" version="1.1"><path d="M854 600L854 593.8C854 587.7 854 575.3 851 562.8C848 550.3 842 537.7 843.5 525.2C845 512.7 854 500.3 855.5 487.8C857 475.3 851 462.7 849.5 450.2C848 437.7 851 425.3 851 412.8C851 400.3 848 387.7 848 375.2C848 362.7 851 350.3 849.5 337.8C848 325.3 842 312.7 839 300.2C836 287.7 836 275.3 840.5 262.8C845 250.3 854 237.7 857 225.2C860 212.7 857 200.3 854 187.8C851 175.3 848 162.7 848 150.2C848 137.7 851 125.3 852.5 112.8C854 100.3 854 87.7 855.5 75.2C857 62.7 860 50.3 857 37.8C854 25.3 845 12.7 840.5 6.3L836 0L900 0L900 6.3C900 12.7 900 25.3 900 37.8C900 50.3 900 62.7 900 75.2C900 87.7 900 100.3 900 112.8C900 125.3 900 137.7 900 150.2C900 162.7 900 175.3 900 187.8C900 200.3 900 212.7 900 225.2C900 237.7 900 250.3 900 262.8C900 275.3 900 287.7 900 300.2C900 312.7 900 325.3 900 337.8C900 350.3 900 362.7 900 375.2C900 387.7 900 400.3 900 412.8C900 425.3 900 437.7 900 450.2C900 462.7 900 475.3 900 487.8C900 500.3 900 512.7 900 525.2C900 537.7 900 550.3 900 562.8C900 575.3 900 587.7 900 593.8L900 600Z" fill="#004cbb"></path><path d="M755 600L747.5 593.8C740 587.7 725 575.3 725 562.8C725 550.3 740 537.7 752 525.2C764 512.7 773 500.3 767 487.8C761 475.3 740 462.7 734 450.2C728 437.7 737 425.3 738.5 412.8C740 400.3 734 387.7 729.5 375.2C725 362.7 722 350.3 717.5 337.8C713 325.3 707 312.7 705.5 300.2C704 287.7 707 275.3 717.5 262.8C728 250.3 746 237.7 749 225.2C752 212.7 740 200.3 735.5 187.8C731 175.3 734 162.7 735.5 150.2C737 137.7 737 125.3 737 112.8C737 100.3 737 87.7 737 75.2C737 62.7 737 50.3 729.5 37.8C722 25.3 707 12.7 699.5 6.3L692 0L837 0L841.5 6.3C846 12.7 855 25.3 858 37.8C861 50.3 858 62.7 856.5 75.2C855 87.7 855 100.3 853.5 112.8C852 125.3 849 137.7 849 150.2C849 162.7 852 175.3 855 187.8C858 200.3 861 212.7 858 225.2C855 237.7 846 250.3 841.5 262.8C837 275.3 837 287.7 840 300.2C843 312.7 849 325.3 850.5 337.8C852 350.3 849 362.7 849 375.2C849 387.7 852 400.3 852 412.8C852 425.3 849 437.7 850.5 450.2C852 462.7 858 475.3 856.5 487.8C855 500.3 846 512.7 844.5 525.2C843 537.7 849 550.3 852 562.8C855 575.3 855 587.7 855 593.8L855 600Z" fill="#005ce5"></path><path d="M665 600L657.5 593.8C650 587.7 635 575.3 633.5 562.8C632 550.3 644 537.7 651.5 525.2C659 512.7 662 500.3 653 487.8C644 475.3 623 462.7 621.5 450.2C620 437.7 638 425.3 642.5 412.8C647 400.3 638 387.7 635 375.2C632 362.7 635 350.3 636.5 337.8C638 325.3 638 312.7 635 300.2C632 287.7 626 275.3 630.5 262.8C635 250.3 650 237.7 648.5 225.2C647 212.7 629 200.3 626 187.8C623 175.3 635 162.7 636.5 150.2C638 137.7 629 125.3 632 112.8C635 100.3 650 87.7 651.5 75.2C653 62.7 641 50.3 626 37.8C611 25.3 593 12.7 584 6.3L575 0L693 0L700.5 6.3C708 12.7 723 25.3 730.5 37.8C738 50.3 738 62.7 738 75.2C738 87.7 738 100.3 738 112.8C738 125.3 738 137.7 736.5 150.2C735 162.7 732 175.3 736.5 187.8C741 200.3 753 212.7 750 225.2C747 237.7 729 250.3 718.5 262.8C708 275.3 705 287.7 706.5 300.2C708 312.7 714 325.3 718.5 337.8C723 350.3 726 362.7 730.5 375.2C735 387.7 741 400.3 739.5 412.8C738 425.3 729 437.7 735 450.2C741 462.7 762 475.3 768 487.8C774 500.3 765 512.7 753 525.2C741 537.7 726 550.3 726 562.8C726 575.3 741 587.7 748.5 593.8L756 600Z" fill="#2573ff"></path><path d="M611 600L605 593.8C599 587.7 587 575.3 584 562.8C581 550.3 587 537.7 591.5 525.2C596 512.7 599 500.3 591.5 487.8C584 475.3 566 462.7 563 450.2C560 437.7 572 425.3 578 412.8C584 400.3 584 387.7 581 375.2C578 362.7 572 350.3 572 337.8C572 325.3 578 312.7 575 300.2C572 287.7 560 275.3 564.5 262.8C569 250.3 590 237.7 593 225.2C596 212.7 581 200.3 579.5 187.8C578 175.3 590 162.7 590 150.2C590 137.7 578 125.3 581 112.8C584 100.3 602 87.7 600.5 75.2C599 62.7 578 50.3 561.5 37.8C545 25.3 533 12.7 527 6.3L521 0L576 0L585 6.3C594 12.7 612 25.3 627 37.8C642 50.3 654 62.7 652.5 75.2C651 87.7 636 100.3 633 112.8C630 125.3 639 137.7 637.5 150.2C636 162.7 624 175.3 627 187.8C630 200.3 648 212.7 649.5 225.2C651 237.7 636 250.3 631.5 262.8C627 275.3 633 287.7 636 300.2C639 312.7 639 325.3 637.5 337.8C636 350.3 633 362.7 636 375.2C639 387.7 648 400.3 643.5 412.8C639 425.3 621 437.7 622.5 450.2C624 462.7 645 475.3 654 487.8C663 500.3 660 512.7 652.5 525.2C645 537.7 633 550.3 634.5 562.8C636 575.3 651 587.7 658.5 593.8L666 600Z" fill="#5892ff"></path><path d="M458 600L435.5 593.8C413 587.7 368 575.3 360.5 562.8C353 550.3 383 537.7 386 525.2C389 512.7 365 500.3 356 487.8C347 475.3 353 462.7 357.5 450.2C362 437.7 365 425.3 360.5 412.8C356 400.3 344 387.7 338 375.2C332 362.7 332 350.3 341 337.8C350 325.3 368 312.7 372.5 300.2C377 287.7 368 275.3 369.5 262.8C371 250.3 383 237.7 386 225.2C389 212.7 383 200.3 383 187.8C383 175.3 389 162.7 384.5 150.2C380 137.7 365 125.3 356 112.8C347 100.3 344 87.7 356 75.2C368 62.7 395 50.3 390.5 37.8C386 25.3 350 12.7 332 6.3L314 0L522 0L528 6.3C534 12.7 546 25.3 562.5 37.8C579 50.3 600 62.7 601.5 75.2C603 87.7 585 100.3 582 112.8C579 125.3 591 137.7 591 150.2C591 162.7 579 175.3 580.5 187.8C582 200.3 597 212.7 594 225.2C591 237.7 570 250.3 565.5 262.8C561 275.3 573 287.7 576 300.2C579 312.7 573 325.3 573 337.8C573 350.3 579 362.7 582 375.2C585 387.7 585 400.3 579 412.8C573 425.3 561 437.7 564 450.2C567 462.7 585 475.3 592.5 487.8C600 500.3 597 512.7 592.5 525.2C588 537.7 582 550.3 585 562.8C588 575.3 600 587.7 606 593.8L612 600Z" fill="#6198ff"></path><path d="M359 600L341 593.8C323 587.7 287 575.3 282.5 562.8C278 550.3 305 537.7 308 525.2C311 512.7 290 500.3 279.5 487.8C269 475.3 269 462.7 270.5 450.2C272 437.7 275 425.3 276.5 412.8C278 400.3 278 387.7 276.5 375.2C275 362.7 272 350.3 278 337.8C284 325.3 299 312.7 305 300.2C311 287.7 308 275.3 305 262.8C302 250.3 299 237.7 297.5 225.2C296 212.7 296 200.3 302 187.8C308 175.3 320 162.7 312.5 150.2C305 137.7 278 125.3 266 112.8C254 100.3 257 87.7 270.5 75.2C284 62.7 308 50.3 308 37.8C308 25.3 284 12.7 272 6.3L260 0L315 0L333 6.3C351 12.7 387 25.3 391.5 37.8C396 50.3 369 62.7 357 75.2C345 87.7 348 100.3 357 112.8C366 125.3 381 137.7 385.5 150.2C390 162.7 384 175.3 384 187.8C384 200.3 390 212.7 387 225.2C384 237.7 372 250.3 370.5 262.8C369 275.3 378 287.7 373.5 300.2C369 312.7 351 325.3 342 337.8C333 350.3 333 362.7 339 375.2C345 387.7 357 400.3 361.5 412.8C366 425.3 363 437.7 358.5 450.2C354 462.7 348 475.3 357 487.8C366 500.3 390 512.7 387 525.2C384 537.7 354 550.3 361.5 562.8C369 575.3 414 587.7 436.5 593.8L459 600Z" fill="#5892ff"></path><path d="M323 600L305 593.8C287 587.7 251 575.3 242 562.8C233 550.3 251 537.7 254 525.2C257 512.7 245 500.3 239 487.8C233 475.3 233 462.7 231.5 450.2C230 437.7 227 425.3 224 412.8C221 400.3 218 387.7 216.5 375.2C215 362.7 215 350.3 221 337.8C227 325.3 239 312.7 246.5 300.2C254 287.7 257 275.3 255.5 262.8C254 250.3 248 237.7 248 225.2C248 212.7 254 200.3 260 187.8C266 175.3 272 162.7 263 150.2C254 137.7 230 125.3 216.5 112.8C203 100.3 200 87.7 210.5 75.2C221 62.7 245 50.3 246.5 37.8C248 25.3 227 12.7 216.5 6.3L206 0L261 0L273 6.3C285 12.7 309 25.3 309 37.8C309 50.3 285 62.7 271.5 75.2C258 87.7 255 100.3 267 112.8C279 125.3 306 137.7 313.5 150.2C321 162.7 309 175.3 303 187.8C297 200.3 297 212.7 298.5 225.2C300 237.7 303 250.3 306 262.8C309 275.3 312 287.7 306 300.2C300 312.7 285 325.3 279 337.8C273 350.3 276 362.7 277.5 375.2C279 387.7 279 400.3 277.5 412.8C276 425.3 273 437.7 271.5 450.2C270 462.7 270 475.3 280.5 487.8C291 500.3 312 512.7 309 525.2C306 537.7 279 550.3 283.5 562.8C288 575.3 324 587.7 342 593.8L360 600Z" fill="#2573ff"></path><path d="M233 600L216.5 593.8C200 587.7 167 575.3 164 562.8C161 550.3 188 537.7 192.5 525.2C197 512.7 179 500.3 168.5 487.8C158 475.3 155 462.7 158 450.2C161 437.7 170 425.3 170 412.8C170 400.3 161 387.7 159.5 375.2C158 362.7 164 350.3 171.5 337.8C179 325.3 188 312.7 194 300.2C200 287.7 203 275.3 200 262.8C197 250.3 188 237.7 186.5 225.2C185 212.7 191 200.3 198.5 187.8C206 175.3 215 162.7 207.5 150.2C200 137.7 176 125.3 164 112.8C152 100.3 152 87.7 158 75.2C164 62.7 176 50.3 171.5 37.8C167 25.3 146 12.7 135.5 6.3L125 0L207 0L217.5 6.3C228 12.7 249 25.3 247.5 37.8C246 50.3 222 62.7 211.5 75.2C201 87.7 204 100.3 217.5 112.8C231 125.3 255 137.7 264 150.2C273 162.7 267 175.3 261 187.8C255 200.3 249 212.7 249 225.2C249 237.7 255 250.3 256.5 262.8C258 275.3 255 287.7 247.5 300.2C240 312.7 228 325.3 222 337.8C216 350.3 216 362.7 217.5 375.2C219 387.7 222 400.3 225 412.8C228 425.3 231 437.7 232.5 450.2C234 462.7 234 475.3 240 487.8C246 500.3 258 512.7 255 525.2C252 537.7 234 550.3 243 562.8C252 575.3 288 587.7 306 593.8L324 600Z" fill="#005ce5"></path><path d="M0 600L0 593.8C0 587.7 0 575.3 0 562.8C0 550.3 0 537.7 0 525.2C0 512.7 0 500.3 0 487.8C0 475.3 0 462.7 0 450.2C0 437.7 0 425.3 0 412.8C0 400.3 0 387.7 0 375.2C0 362.7 0 350.3 0 337.8C0 325.3 0 312.7 0 300.2C0 287.7 0 275.3 0 262.8C0 250.3 0 237.7 0 225.2C0 212.7 0 200.3 0 187.8C0 175.3 0 162.7 0 150.2C0 137.7 0 125.3 0 112.8C0 100.3 0 87.7 0 75.2C0 62.7 0 50.3 0 37.8C0 25.3 0 12.7 0 6.3L0 0L126 0L136.5 6.3C147 12.7 168 25.3 172.5 37.8C177 50.3 165 62.7 159 75.2C153 87.7 153 100.3 165 112.8C177 125.3 201 137.7 208.5 150.2C216 162.7 207 175.3 199.5 187.8C192 200.3 186 212.7 187.5 225.2C189 237.7 198 250.3 201 262.8C204 275.3 201 287.7 195 300.2C189 312.7 180 325.3 172.5 337.8C165 350.3 159 362.7 160.5 375.2C162 387.7 171 400.3 171 412.8C171 425.3 162 437.7 159 450.2C156 462.7 159 475.3 169.5 487.8C180 500.3 198 512.7 193.5 525.2C189 537.7 162 550.3 165 562.8C168 575.3 201 587.7 217.5 593.8L234 600Z" fill="#004cbb"></path></svg>