<svg id="visual" viewBox="0 0 1800 1080" width="1800" height="1080" xmlns="http://www.w3.org/2000/svg" xmlns:xlink="http://www.w3.org/1999/xlink" version="1.1"><path d="M0 141L23 132C46 123 92 105 138.2 96C184.3 87 230.7 87 276.8 96C323 105 369 123 415.2 126.7C461.3 130.3 507.7 119.7 553.8 112.5C600 105.3 646 101.7 692.2 96.3C738.3 91 784.7 84 830.8 84C877 84 923 91 969.2 96.3C1015.3 101.7 1061.7 105.3 1107.8 107.2C1154 109 1200 109 1246.2 110.8C1292.3 112.7 1338.7 116.3 1384.8 116.3C1431 116.3 1477 112.7 1523.2 107.2C1569.3 101.7 1615.7 94.3 1661.8 90.7C1708 87 1754 87 1777 87L1800 87L1800 0L1777 0C1754 0 1708 0 1661.8 0C1615.7 0 1569.3 0 1523.2 0C1477 0 1431 0 1384.8 0C1338.7 0 1292.3 0 1246.2 0C1200 0 1154 0 1107.8 0C1061.7 0 1015.3 0 969.2 0C923 0 877 0 830.8 0C784.7 0 738.3 0 692.2 0C646 0 600 0 553.8 0C507.7 0 461.3 0 415.2 0C369 0 323 0 276.8 0C230.7 0 184.3 0 138.2 0C92 0 46 0 23 0L0 0Z" fill="#004cbb"></path><path d="M0 239L23 235.3C46 231.7 92 224.3 138.2 215.3C184.3 206.3 230.7 195.7 276.8 206.5C323 217.3 369 249.7 415.2 262.2C461.3 274.7 507.7 267.3 553.8 261.8C600 256.3 646 252.7 692.2 240.2C738.3 227.7 784.7 206.3 830.8 199.2C877 192 923 199 969.2 211.5C1015.3 224 1061.7 242 1107.8 252.8C1154 263.7 1200 267.3 1246.2 258.3C1292.3 249.3 1338.7 227.7 1384.8 216.8C1431 206 1477 206 1523.2 202.5C1569.3 199 1615.7 192 1661.8 186.7C1708 181.3 1754 177.7 1777 175.8L1800 174L1800 85L1777 85C1754 85 1708 85 1661.8 88.7C1615.7 92.3 1569.3 99.7 1523.2 105.2C1477 110.7 1431 114.3 1384.8 114.3C1338.7 114.3 1292.3 110.7 1246.2 108.8C1200 107 1154 107 1107.8 105.2C1061.7 103.3 1015.3 99.7 969.2 94.3C923 89 877 82 830.8 82C784.7 82 738.3 89 692.2 94.3C646 99.7 600 103.3 553.8 110.5C507.7 117.7 461.3 128.3 415.2 124.7C369 121 323 103 276.8 94C230.7 85 184.3 85 138.2 94C92 103 46 121 23 130L0 139Z" fill="#0062f3"></path><path d="M0 455L23 444.2C46 433.3 92 411.7 138.2 391.8C184.3 372 230.7 354 276.8 370.2C323 386.3 369 436.7 415.2 445.7C461.3 454.7 507.7 422.3 553.8 413.3C600 404.3 646 418.7 692.2 404.2C738.3 389.7 784.7 346.3 830.8 341C877 335.7 923 368.3 969.2 388.2C1015.3 408 1061.7 415 1107.8 418.5C1154 422 1200 422 1246.2 420.2C1292.3 418.3 1338.7 414.7 1384.8 403.8C1431 393 1477 375 1523.2 375C1569.3 375 1615.7 393 1661.8 393C1708 393 1754 375 1777 366L1800 357L1800 172L1777 173.8C1754 175.7 1708 179.3 1661.8 184.7C1615.7 190 1569.3 197 1523.2 200.5C1477 204 1431 204 1384.8 214.8C1338.7 225.7 1292.3 247.3 1246.2 256.3C1200 265.3 1154 261.7 1107.8 250.8C1061.7 240 1015.3 222 969.2 209.5C923 197 877 190 830.8 197.2C784.7 204.3 738.3 225.7 692.2 238.2C646 250.7 600 254.3 553.8 259.8C507.7 265.3 461.3 272.7 415.2 260.2C369 247.7 323 215.3 276.8 204.5C230.7 193.7 184.3 204.3 138.2 213.3C92 222.3 46 229.7 23 233.3L0 237Z" fill="#4988ff"></path><path d="M0 703L23 708.3C46 713.7 92 724.3 138.2 711.7C184.3 699 230.7 663 276.8 672C323 681 369 735 415.2 729.7C461.3 724.3 507.7 659.7 553.8 650.7C600 641.7 646 688.3 692.2 693.7C738.3 699 784.7 663 830.8 646.8C877 630.7 923 634.3 969.2 652.3C1015.3 670.3 1061.7 702.7 1107.8 709.8C1154 717 1200 699 1246.2 679.3C1292.3 659.7 1338.7 638.3 1384.8 638.3C1431 638.3 1477 659.7 1523.2 674C1569.3 688.3 1615.7 695.7 1661.8 697.5C1708 699.3 1754 695.7 1777 693.8L1800 692L1800 355L1777 364C1754 373 1708 391 1661.8 391C1615.7 391 1569.3 373 1523.2 373C1477 373 1431 391 1384.8 401.8C1338.7 412.7 1292.3 416.3 1246.2 418.2C1200 420 1154 420 1107.8 416.5C1061.7 413 1015.3 406 969.2 386.2C923 366.3 877 333.7 830.8 339C784.7 344.3 738.3 387.7 692.2 402.2C646 416.7 600 402.3 553.8 411.3C507.7 420.3 461.3 452.7 415.2 443.7C369 434.7 323 384.3 276.8 368.2C230.7 352 184.3 370 138.2 389.8C92 409.7 46 431.3 23 442.2L0 453Z" fill="#6198ff"></path><path d="M0 941L23 942.7C46 944.3 92 947.7 138.2 936.8C184.3 926 230.7 901 276.8 901C323 901 369 926 415.2 933.2C461.3 940.3 507.7 929.7 553.8 926.2C600 922.7 646 926.3 692.2 924.5C738.3 922.7 784.7 915.3 830.8 915.3C877 915.3 923 922.7 969.2 928.2C1015.3 933.7 1061.7 937.3 1107.8 935.5C1154 933.7 1200 926.3 1246.2 920.8C1292.3 915.3 1338.7 911.7 1384.8 908C1431 904.3 1477 900.7 1523.2 904.3C1569.3 908 1615.7 919 1661.8 922.7C1708 926.3 1754 922.7 1777 920.8L1800 919L1800 690L1777 691.8C1754 693.7 1708 697.3 1661.8 695.5C1615.7 693.7 1569.3 686.3 1523.2 672C1477 657.7 1431 636.3 1384.8 636.3C1338.7 636.3 1292.3 657.7 1246.2 677.3C1200 697 1154 715 1107.8 707.8C1061.7 700.7 1015.3 668.3 969.2 650.3C923 632.3 877 628.7 830.8 644.8C784.7 661 738.3 697 692.2 691.7C646 686.3 600 639.7 553.8 648.7C507.7 657.7 461.3 722.3 415.2 727.7C369 733 323 679 276.8 670C230.7 661 184.3 697 138.2 709.7C92 722.3 46 711.7 23 706.3L0 701Z" fill="#4988ff"></path><path d="M0 1016L23 1014.2C46 1012.3 92 1008.7 138.2 1001.5C184.3 994.3 230.7 983.7 276.8 983.7C323 983.7 369 994.3 415.2 994.3C461.3 994.3 507.7 983.7 553.8 983.7C600 983.7 646 994.3 692.2 996.2C738.3 998 784.7 991 830.8 989.3C877 987.7 923 991.3 969.2 996.7C1015.3 1002 1061.7 1009 1107.8 1012.5C1154 1016 1200 1016 1246.2 1012.5C1292.3 1009 1338.7 1002 1384.8 996.7C1431 991.3 1477 987.7 1523.2 989.3C1569.3 991 1615.7 998 1661.8 998C1708 998 1754 991 1777 987.5L1800 984L1800 917L1777 918.8C1754 920.7 1708 924.3 1661.8 920.7C1615.7 917 1569.3 906 1523.2 902.3C1477 898.7 1431 902.3 1384.8 906C1338.7 909.7 1292.3 913.3 1246.2 918.8C1200 924.3 1154 931.7 1107.8 933.5C1061.7 935.3 1015.3 931.7 969.2 926.2C923 920.7 877 913.3 830.8 913.3C784.7 913.3 738.3 920.7 692.2 922.5C646 924.3 600 920.7 553.8 924.2C507.7 927.7 461.3 938.3 415.2 931.2C369 924 323 899 276.8 899C230.7 899 184.3 924 138.2 934.8C92 945.7 46 942.3 23 940.7L0 939Z" fill="#0062f3"></path><path d="M0 1081L23 1081C46 1081 92 1081 138.2 1081C184.3 1081 230.7 1081 276.8 1081C323 1081 369 1081 415.2 1081C461.3 1081 507.7 1081 553.8 1081C600 1081 646 1081 692.2 1081C738.3 1081 784.7 1081 830.8 1081C877 1081 923 1081 969.2 1081C1015.3 1081 1061.7 1081 1107.8 1081C1154 1081 1200 1081 1246.2 1081C1292.3 1081 1338.7 1081 1384.8 1081C1431 1081 1477 1081 1523.2 1081C1569.3 1081 1615.7 1081 1661.8 1081C1708 1081 1754 1081 1777 1081L1800 1081L1800 982L1777 985.5C1754 989 1708 996 1661.8 996C1615.7 996 1569.3 989 1523.2 987.3C1477 985.7 1431 989.3 1384.8 994.7C1338.7 1000 1292.3 1007 1246.2 1010.5C1200 1014 1154 1014 1107.8 1010.5C1061.7 1007 1015.3 1000 969.2 994.7C923 989.3 877 985.7 830.8 987.3C784.7 989 738.3 996 692.2 994.2C646 992.3 600 981.7 553.8 981.7C507.7 981.7 461.3 992.3 415.2 992.3C369 992.3 323 981.7 276.8 981.7C230.7 981.7 184.3 992.3 138.2 999.5C92 1006.7 46 1010.3 23 1012.2L0 1014Z" fill="#004cbb"></path></svg>